{
  "source": "C:\\Users\\Peter\\Desktop\\stuff\\MIUN\\quantitative_research\\video_compression\\videos\\BVI-HD\\BVI-HD_CDVL_videos\\ORIG\\CalmingWater_1920x1080_60fps.mp4",
  "output": "C:\\Users\\Peter\\Desktop\\stuff\\MIUN\\quantitative_research\\video_compression\\compressed_videos\\BVI-HD\\h264\\1.5\\CalmingWater_1920x1080_60fps_h264.mp4",
  "codec": "h264",
  "ok": "Input #0, mov,mp4,m4a,3gp,3g2,mj2, from 'C:\\Users\\Peter\\Desktop\\stuff\\MIUN\\quantitative_research\\video_compression\\videos\\BVI-HD\\BVI-HD_CDVL_videos\\ORIG\\CalmingWater_1920x1080_60fps.mp4':\n  Metadata:\n    major_brand     : isom\n    minor_version   : 512\n    compatible_brands: isomiso2avc1mp41\n    encoder         : Lavf54.28.101\n  Duration: 00:00:05.00, start: 0.000000, bitrate: 623787 kb/s\n  Stream #0:0[0x1](und): Video: h264 (High 4:4:4 Predictive) (avc1 / 0x31637661), yuv420p(progressive), 1920x1080, 623782 kb/s, 60 fps, 60 tbr, 60 tbn (default)\n    Metadata:\n      handler_name    : VideoHandler\n      vendor_id       : [0][0][0][0]\n[out#0/mp4 @ 000001d585689b40] Codec AVOption b:a (set bitrate (in bits/s)) has not been used for any stream. The most likely reason is either wrong type (e.g. a video option with no video streams) or that it is a private option of some decoder which was not actually used for any stream.\nStream mapping:\n  Stream #0:0 -> #0:0 (h264 (native) -> h264 (libx264))\nPress [q] to stop, [?] for help\n[libx264 @ 000001d5861704c0] using cpu capabilities: MMX2 SSE2Fast SSSE3 SSE4.2 AVX FMA3 BMI2 AVX2\n[libx264 @ 000001d5861704c0] profile High, level 5.0, 4:2:0, 8-bit\n[libx264 @ 000001d5861704c0] 264 - core 165 r3222 b35605a - H.264/MPEG-4 AVC codec - Copyleft 2003-2025 - http://www.videolan.org/x264.html - options: cabac=1 ref=5 deblock=1:0:0 analyse=0x3:0x113 me=hex subme=8 psy=1 psy_rd=1.00:0.00 mixed_ref=1 me_range=16 chroma_me=1 trellis=2 8x8dct=1 cqm=0 deadzone=21,11 fast_pskip=1 chroma_qp_offset=-2 threads=18 lookahead_threads=3 sliced_threads=0 nr=0 decimate=1 interlaced=0 bluray_compat=0 constrained_intra=0 bframes=3 b_pyramid=2 b_adapt=1 b_bias=0 direct=3 weightb=1 open_gop=0 weightp=2 keyint=250 keyint_min=25 scenecut=40 intra_refresh=0 rc_lookahead=50 rc=cbr mbtree=1 bitrate=1500 ratetol=1.0 qcomp=0.60 qpmin=0 qpmax=69 qpstep=4 vbv_maxrate=1500 vbv_bufsize=1500 nal_hrd=none filler=0 ip_ratio=1.40 aq=1:1.00\nOutput #0, mp4, to 'C:\\Users\\Peter\\Desktop\\stuff\\MIUN\\quantitative_research\\video_compression\\compressed_videos\\BVI-HD\\h264\\1.5\\CalmingWater_1920x1080_60fps_h264.mp4':\n  Metadata:\n    major_brand     : isom\n    minor_version   : 512\n    compatible_brands: isomiso2avc1mp41\n    encoder         : Lavf62.3.100\n  Stream #0:0(und): Video: h264 (avc1 / 0x31637661), yuv420p(tv, progressive), 1920x1080, q=2-31, 1500 kb/s, 60 fps, 15360 tbn (default)\n    Metadata:\n      encoder         : Lavc62.11.100 libx264\n      handler_name    : VideoHandler\n      vendor_id       : [0][0][0][0]\n    Side data:\n      cpb: bitrate max/min/avg: 1500000/0/1500000 buffer size: 1500000 vbv_delay: N/A\nframe=    0 fps=0.0 q=0.0 size=       0KiB time=N/A bitrate=N/A speed=N/A elapsed=0:00:00.51    \nframe=    0 fps=0.0 q=0.0 size=       0KiB time=N/A bitrate=N/A speed=N/A elapsed=0:00:01.05    \nframe=    0 fps=0.0 q=0.0 size=       0KiB time=N/A bitrate=N/A speed=N/A elapsed=0:00:01.61    \nframe=    0 fps=0.0 q=0.0 size=       0KiB time=N/A bitrate=N/A speed=N/A elapsed=0:00:02.17    \nframe=    0 fps=0.0 q=0.0 size=       0KiB time=N/A bitrate=N/A speed=N/A elapsed=0:00:02.73    \nframe=    4 fps=1.2 q=57.0 size=       0KiB time=00:00:00.03 bitrate=  11.5kbits/s speed=0.0102x elapsed=0:00:03.28    \nframe=   15 fps=3.9 q=55.0 size=       0KiB time=00:00:00.21 bitrate=   1.8kbits/s speed=0.0563x elapsed=0:00:03.84    \nframe=   26 fps=5.9 q=56.0 size=       0KiB time=00:00:00.40 bitrate=   1.0kbits/s speed=0.0914x elapsed=0:00:04.37    \nframe=   38 fps=7.7 q=56.0 size=       0KiB time=00:00:00.58 bitrate=   0.7kbits/s speed=0.118x elapsed=0:00:04.93    \nframe=   47 fps=8.6 q=56.0 size=       0KiB time=00:00:00.75 bitrate=   0.5kbits/s speed=0.137x elapsed=0:00:05.48    \nframe=   61 fps= 10 q=57.0 size=       0KiB time=00:00:00.96 bitrate=   0.4kbits/s speed=0.161x elapsed=0:00:06.01    \nframe=   72 fps= 11 q=58.0 size=       0KiB time=00:00:01.16 bitrate=   0.3kbits/s speed=0.178x elapsed=0:00:06.56    \nframe=   83 fps= 12 q=58.0 size=     256KiB time=00:00:01.33 bitrate=1573.2kbits/s speed=0.187x elapsed=0:00:07.12    \nframe=   93 fps= 12 q=58.0 size=     256KiB time=00:00:01.51 bitrate=1383.0kbits/s speed=0.197x elapsed=0:00:07.69    \nframe=  106 fps= 13 q=59.0 size=     256KiB time=00:00:01.71 bitrate=1221.9kbits/s speed=0.208x elapsed=0:00:08.26    \nframe=  118 fps= 13 q=59.0 size=     256KiB time=00:00:01.93 bitrate=1084.9kbits/s speed=0.22x elapsed=0:00:08.78    \nframe=  132 fps= 14 q=59.0 size=     256KiB time=00:00:02.16 bitrate= 968.1kbits/s speed=0.233x elapsed=0:00:09.30    \nframe=  148 fps= 15 q=59.0 size=     512KiB time=00:00:02.43 bitrate=1723.8kbits/s speed=0.247x elapsed=0:00:09.83    \nframe=  163 fps= 16 q=60.0 size=     512KiB time=00:00:02.68 bitrate=1563.2kbits/s speed=0.259x elapsed=0:00:10.36    \nframe=  175 fps= 16 q=61.0 size=     512KiB time=00:00:02.88 bitrate=1454.8kbits/s speed=0.265x elapsed=0:00:10.87    \nframe=  190 fps= 17 q=61.0 size=     512KiB time=00:00:03.13 bitrate=1338.7kbits/s speed=0.275x elapsed=0:00:11.39    \nframe=  205 fps= 17 q=61.0 size=     512KiB time=00:00:03.38 bitrate=1239.8kbits/s speed=0.284x elapsed=0:00:11.91    \nframe=  221 fps= 18 q=61.0 size=     768KiB time=00:00:03.65 bitrate=1723.8kbits/s speed=0.293x elapsed=0:00:12.44    \nframe=  248 fps= 19 q=61.0 size=     768KiB time=00:00:04.10 bitrate=1534.6kbits/s speed=0.316x elapsed=0:00:12.95    \n[mp4 @ 000001d585717ac0] Starting second pass: moving the moov atom to the beginning of the file\n[out#0/mp4 @ 000001d585689b40] video:939KiB audio:0KiB subtitle:0KiB other streams:0KiB global headers:0KiB muxing overhead: 0.267933%\nframe=  300 fps= 23 q=-1.0 Lsize=     941KiB time=00:00:04.96 bitrate=1552.2kbits/s speed=0.373x elapsed=0:00:13.31    \n[libx264 @ 000001d5861704c0] frame I:2     Avg QP:51.00  size:  6298\n[libx264 @ 000001d5861704c0] frame P:252   Avg QP:51.00  size:  3626\n[libx264 @ 000001d5861704c0] frame B:46    Avg QP:51.00  size:   737\n[libx264 @ 000001d5861704c0] consecutive B-frames: 79.3%  0.7%  0.0% 20.0%\n[libx264 @ 000001d5861704c0] mb I  I16..4: 63.2% 36.8%  0.0%\n[libx264 @ 000001d5861704c0] mb P  I16..4: 11.9% 15.6%  0.0%  P16..4:  7.6%  0.1%  2.1%  0.0%  0.0%    skip:62.6%\n[libx264 @ 000001d5861704c0] mb B  I16..4:  0.0%  0.0%  0.0%  B16..8:  9.3%  0.0%  0.0%  direct: 0.3%  skip:90.4%  L0:46.9% L1:52.6% BI: 0.6%\n[libx264 @ 000001d5861704c0] 8x8 transform intra:56.2% inter:97.0%\n[libx264 @ 000001d5861704c0] direct mvs  spatial:87.0% temporal:13.0%\n[libx264 @ 000001d5861704c0] coded y,uvDC,uvAC intra: 0.5% 34.4% 0.0% inter: 0.0% 3.2% 0.0%\n[libx264 @ 000001d5861704c0] i16 v,h,dc,p: 56% 36%  2%  6%\n[libx264 @ 000001d5861704c0] i8 v,h,dc,ddl,ddr,vr,hd,vl,hu:  0%  0% 99%  0%  0%  0%  0%  0%  0%\n[libx264 @ 000001d5861704c0] i8c dc,h,v,p: 94%  5%  1%  0%\n[libx264 @ 000001d5861704c0] Weighted P-Frames: Y:3.2% UV:0.4%\n[libx264 @ 000001d5861704c0] ref P L0: 60.2%  0.4% 12.2%  7.0%  8.7% 11.2%  0.4%\n[libx264 @ 000001d5861704c0] ref B L0: 82.1%  8.2%  7.5%  2.3%\n[libx264 @ 000001d5861704c0] ref B L1: 91.3%  8.7%\n[libx264 @ 000001d5861704c0] kb/s:1536.48\n",
  "seconds": 13.637775897979736,
  "probe_out": {}
}